<?xml version="1.0" encoding="UTF-8"?>
<svg width="29px" height="87px" viewBox="0 0 29 87" version="1.1" xmlns="http://www.w3.org/2000/svg" xmlns:xlink="http://www.w3.org/1999/xlink">
    <!-- Generator: Sketch 48.2 (47327) - http://www.bohemiancoding.com/sketch -->
    <title>Guard</title>
    <desc>Created with Sketch.</desc>
    <defs></defs>
    <g id="Page-1" stroke="none" stroke-width="1" fill="none" fill-rule="evenodd">
        <g id="noun_65362_cc" transform="translate(-36.000000, 0.000000)" fill="#4A4A4A" fill-rule="nonzero">
            <g id="Group" transform="translate(36.000000, 0.000000)">
                <path d="M25.299,49.551 L25.299,34.087 C25.299,33.379 24.725,32.805 24.017,32.805 C23.309,32.805 22.735,33.379 22.735,34.087 L22.735,44.842 C20.813,42.118 17.648,40.331 14.068,40.331 C10.316,40.331 7.02,42.295 5.134,45.243 C5.078,45.295 5.012,45.331 4.965,45.394 C-3.24,56.382 2,68.896 2.228,69.423 C2.436,69.907 2.909,70.197 3.405,70.197 C3.574,70.197 3.745,70.164 3.91,70.093 C4.56,69.815 4.861,69.062 4.583,68.411 C4.543,68.317 1.434,60.826 3.991,52.814 L9.136,69.113 L9.136,85.27 C9.136,85.978 9.71,86.552 10.418,86.552 C11.126,86.552 11.7,85.978 11.7,85.27 L11.7,70.198 L16.437,70.198 L16.437,85.27 C16.437,85.978 17.011,86.552 17.719,86.552 C18.427,86.552 19,85.978 19,85.27 L19,69.113 L22.734,57.285 L22.734,67.299 C22.734,68.007 23.308,68.581 24.016,68.581 C24.724,68.581 25.298,68.007 25.298,67.299 L25.298,65.827 C25.977,65.639 27.134,65.12 27.904,63.664 C29.384,60.867 28.5,56.124 25.299,49.551 Z M16.778,67.634 L11.356,67.634 L10.055,63.512 L18.079,63.512 L16.778,67.634 Z M18.885,60.96 C18.864,60.959 18.844,60.947 18.822,60.947 L9.247,60.947 L6.028,50.748 C6.129,46.4 9.697,42.895 14.069,42.895 C17.011,42.895 19.585,44.486 20.987,46.849 C21.071,46.998 21.141,47.134 21.223,47.282 C21.759,48.327 22.081,49.501 22.111,50.748 L18.885,60.96 Z M25.672,62.401 C25.56,62.63 25.43,62.802 25.299,62.937 L25.299,56.35 C26.401,59.977 26.021,61.693 25.672,62.401 Z" id="Shape"></path>
                <path d="M4.578,29.918 L6.595,29.918 C6.582,30.003 6.568,30.085 6.557,30.177 C6.526,30.454 6.506,30.734 6.506,31.044 C6.506,31.328 6.526,31.609 6.563,31.928 C6.595,32.2 6.642,32.467 6.703,32.731 C7.5,36.181 10.528,38.591 14.068,38.591 C17.607,38.591 20.635,36.181 21.432,32.731 C21.438,32.706 21.443,32.68 21.447,32.653 C21.498,32.423 21.54,32.184 21.579,31.879 C21.607,31.623 21.625,31.364 21.627,31.102 C21.629,31.078 21.63,31.053 21.63,31.029 C21.63,31.005 21.629,30.98 21.627,30.954 C21.625,30.693 21.606,30.43 21.568,30.107 C21.56,30.042 21.544,29.981 21.535,29.917 L23.484,29.917 C24.192,29.917 24.766,29.343 24.766,28.635 L24.766,10.754 C24.766,4.835 19.95,0.02 14.031,0.02 C8.112,0.02 3.296,4.835 3.296,10.754 L3.296,28.637 C3.296,29.345 3.87,29.918 4.578,29.918 Z M19.03,30.465 C19.051,30.647 19.063,30.832 19.063,31.018 C19.063,31.022 19.063,31.027 19.064,31.032 C19.063,31.036 19.063,31.041 19.063,31.046 C19.063,31.233 19.05,31.416 19.038,31.542 C19.035,31.561 19.026,31.625 19.023,31.644 C19.002,31.815 18.972,31.982 18.934,32.146 C18.931,32.157 18.929,32.168 18.927,32.18 C18.394,34.448 16.4,36.03 14.068,36.03 C11.729,36.03 9.727,34.437 9.2,32.154 C9.16,31.983 9.129,31.81 9.104,31.599 C9.083,31.417 9.069,31.233 9.069,31.019 C9.069,30.831 9.083,30.647 9.108,30.433 C9.129,30.258 9.16,30.088 9.198,29.92 L18.933,29.92 C18.973,30.083 19.003,30.249 19.03,30.465 Z" id="Shape"></path>
                <circle id="Oval" cx="14.501" cy="45.834" r="1.396"></circle>
                <circle id="Oval" cx="14.501" cy="50.816" r="1.397"></circle>
                <circle id="Oval" cx="14.501" cy="55.798" r="1.396"></circle>
            </g>
        </g>
    </g>
</svg>